<svg width="48" height="48" viewBox="0 0 48 48" fill="none" xmlns="http://www.w3.org/2000/svg">
<circle opacity="0.2" cx="24" cy="24" r="24" fill="#0BC3A2"/>
<path d="M14.4939 34.091V35.3578C14.4939 36.5968 15.4983 37.6012 16.7373 37.6012V37.6012C17.9763 37.6012 18.9807 36.5968 18.9807 35.3578V21.8528H17.708H16.4353L15.1625 21.0012L13.8898 21.8528H12.617L11.3443 21.0012L10.0716 21.8528H8.79883V21.2012C8.79883 15.6783 13.276 11.2012 18.7988 11.2012V11.2012C24.3217 11.2012 28.7988 15.6783 28.7988 21.2012V21.8528H27.1033H25.4078L23.7122 21.0012L22.0167 21.8528" stroke="#0BC4A2" stroke-width="1.12" stroke-linecap="round"/>
<path opacity="0.4" fill-rule="evenodd" clip-rule="evenodd" d="M38.1505 36.0004H23.4425C22.8691 36.0004 22.3984 35.5441 22.3984 34.9823V26.4329C22.3984 26.1594 22.5069 25.8971 22.7103 25.7067L30.0304 18.6921C30.4372 18.3056 31.0842 18.302 31.4929 18.6884L38.8866 25.7067C39.09 25.9009 39.1984 26.1594 39.1984 26.4327V34.9748C39.1963 35.5441 38.7316 36.0004 38.1505 36.0004Z" fill="#28E3A0"/>
<path d="M28.7988 28.3376H33.0525" stroke="#0BC3A2" stroke-width="1.12" stroke-linecap="round" stroke-linejoin="round"/>
<path d="M28.7988 26.5837H33.0525" stroke="#0BC3A2" stroke-width="1.12" stroke-linecap="round" stroke-linejoin="round"/>
<path d="M29.9526 26.5684C30.9654 26.5684 31.7912 27.3942 31.7912 28.407C31.7912 29.4194 30.9654 30.2452 29.9526 30.2452H28.9863L31.8377 32.8007" stroke="#0BC3A2" stroke-width="1.12" stroke-linecap="round" stroke-linejoin="round"/>
</svg>
